<?xml version="1.0" standalone="no"?>
<!DOCTYPE svg PUBLIC "-//W3C//DTD SVG 20010904//EN"
 "http://www.w3.org/TR/2001/REC-SVG-20010904/DTD/svg10.dtd">
<svg version="1.0" xmlns="http://www.w3.org/2000/svg"
 width="1280.000000pt" height="640.000000pt" viewBox="0 0 1280.000000 640.000000"
 preserveAspectRatio="xMidYMid meet">
<metadata>
Created by potrace 1.15, written by Peter Selinger 2001-2017
</metadata>
<g transform="translate(0.000000,640.000000) scale(0.100000,-0.100000)"
fill="#000000" stroke="none">
<path d="M888 5415 c-92 -19 -223 -74 -310 -131 -211 -138 -416 -427 -511
-719 -71 -219 -78 -284 -56 -482 49 -439 267 -709 679 -841 53 -17 131 -37
175 -46 44 -8 116 -22 161 -30 101 -20 154 -20 241 -1 258 54 502 221 643 438
23 37 44 67 47 67 2 0 157 -68 346 -151 608 -269 1207 -527 1602 -691 94 -39
252 -105 353 -147 l183 -76 3 -65 c1 -36 9 -78 18 -95 9 -16 19 -70 22 -120
25 -312 140 -585 330 -784 192 -199 422 -291 731 -291 534 0 875 177 1118 580
39 64 50 98 82 235 54 231 71 391 56 530 -24 236 -100 409 -273 622 -183 225
-435 383 -702 439 -96 20 -274 20 -361 -1 -197 -47 -392 -162 -631 -373 l-90
-80 -305 122 c-474 191 -1173 492 -2004 863 l-220 99 -36 174 c-55 274 -95
382 -188 518 -45 65 -142 162 -218 216 -113 81 -369 186 -536 222 -84 17 -258
17 -349 -1z"/>
<path d="M10763 5070 c-70 -31 -154 -89 -222 -154 -156 -149 -192 -235 -230
-555 l-16 -135 -35 -9 c-19 -5 -48 -21 -65 -36 -43 -40 -148 -103 -234 -141
-197 -86 -351 -190 -496 -335 -231 -230 -361 -491 -451 -902 -36 -167 -31
-347 17 -592 127 -656 579 -1089 1259 -1206 247 -43 554 -38 725 11 528 151
883 484 1098 1030 75 190 104 388 94 633 -3 82 -1 154 6 186 8 39 8 63 0 90
l-11 36 54 24 c72 32 264 160 336 225 71 63 143 170 177 263 23 64 26 85 25
197 -1 148 -18 221 -73 335 -121 245 -483 539 -940 761 -479 233 -872 339
-1018 274z m309 -395 c25 -7 101 -36 167 -64 67 -28 124 -51 127 -51 15 0 238
-118 354 -188 481 -287 636 -429 694 -635 l17 -59 -27 -46 c-15 -26 -50 -78
-79 -117 -47 -63 -62 -75 -147 -120 l-95 -50 -44 36 c-58 48 -116 109 -237
249 -160 185 -309 302 -506 396 -104 49 -324 124 -365 124 -11 0 -42 16 -72
36 -29 20 -81 50 -117 67 l-64 30 7 66 c9 85 58 233 92 278 53 69 160 86 295
48z"/>
</g>
</svg>
